{
  "accessors": [
    {
      "bufferView": 2,
      "componentType": 5126,
      "count": 470,
      "max": [
        7.885395526885986,
        5.920760154724121,
        0.09231182932853699
      ],
      "min": [
        -7.885395526885986,
        -5.920760631561279,
        -0.09231182932853699
      ],
      "type": "VEC3"
    },
    {
      "bufferView": 2,
      "byteOffset": 5640,
      "componentType": 5126,
      "count": 470,
      "max": [
        0.9999828934669495,
        0.9998968243598938,
        1.0
      ],
      "min": [
        -0.9999999403953552,
        -0.999950647354126,
        -1.0
      ],
      "type": "VEC3"
    },
    {
      "bufferView": 3,
      "componentType": 5126,
      "count": 470,
      "max": [
        0.999950647354126,
        1.0,
        2.4041255528572947e-06,
        1.0
      ],
      "min": [
        -0.9998968243598938,
        -1.0,
        -1.4627506743636332e-06,
        1.0
      ],
      "type": "VEC4"
    },
    {
      "bufferView": 1,
      "componentType": 5126,
      "count": 470,
      "max": [
        0.9880568385124207,
        0.9933503866195679
      ],
      "min": [
        0.003712665755301714,
        0.005780813284218311
      ],
      "type": "VEC2"
    },
    {
      "bufferView": 1,
      "byteOffset": 3760,
      "componentType": 5126,
      "count": 470,
      "max": [
        0.9880568385124207,
        0.9933503866195679
      ],
      "min": [
        0.003712665755301714,
        0.005780813284218311
      ],
      "type": "VEC2"
    },
    {
      "bufferView": 1,
      "byteOffset": 7520,
      "componentType": 5126,
      "count": 470,
      "max": [
        0.9880568385124207,
        0.9933503866195679
      ],
      "min": [
        0.003712665755301714,
        0.005780813284218311
      ],
      "type": "VEC2"
    },
    {
      "bufferView": 0,
      "componentType": 5125,
      "count": 1392,
      "type": "SCALAR"
    }
  ],
  "asset": {
    "extras": {
      "author": "plaggy (https://sketchfab.com/plaggy)",
      "license": "SKETCHFAB Standard (https://sketchfab.com/licenses)",
      "source": "https://sketchfab.com/3d-models/artist-palette-3-50ff778bdfaf45839884137bcf6fcefb",
      "title": "Artist Palette 3"
    },
    "generator": "Sketchfab-11.10.0",
    "version": "2.0"
  },
  "bufferViews": [
    {
      "buffer": 0,
      "byteLength": 5568,
      "name": "floatBufferViews",
      "target": 34963
    },
    {
      "buffer": 0,
      "byteLength": 11280,
      "byteOffset": 5568,
      "byteStride": 8,
      "name": "floatBufferViews",
      "target": 34962
    },
    {
      "buffer": 0,
      "byteLength": 11280,
      "byteOffset": 16848,
      "byteStride": 12,
      "name": "floatBufferViews",
      "target": 34962
    },
    {
      "buffer": 0,
      "byteLength": 7520,
      "byteOffset": 28128,
      "byteStride": 16,
      "name": "floatBufferViews",
      "target": 34962
    }
  ],
  "buffers": [
    {
      "byteLength": 35648,
      "uri": "scene.bin"
    }
  ],
  "images": [
    {
      "uri": "textures/ArtistPalette3_baseColor.png"
    },
    {
      "uri": "textures/ArtistPalette3_metallicRoughness.png"
    },
    {
      "uri": "textures/ArtistPalette3_normal.png"
    }
  ],
  "materials": [
    {
      "name": "ArtistPalette3",
      "normalTexture": {
        "index": 2
      },
      "occlusionTexture": {
        "index": 1
      },
      "pbrMetallicRoughness": {
        "baseColorTexture": {
          "index": 0
        },
        "metallicRoughnessTexture": {
          "index": 1
        }
      }
    }
  ],
  "meshes": [
    {
      "name": "ArtistPalette3_ArtistPalette3_0",
      "primitives": [
        {
          "attributes": {
            "NORMAL": 1,
            "POSITION": 0,
            "TANGENT": 2,
            "TEXCOORD_0": 3,
            "TEXCOORD_1": 4,
            "TEXCOORD_2": 5
          },
          "indices": 6,
          "material": 0,
          "mode": 4
        }
      ]
    }
  ],
  "nodes": [
    {
      "children": [
        1
      ],
      "matrix": [
        1.0,
        0.0,
        0.0,
        0.0,
        0.0,
        2.220446049250313e-16,
        -1.0,
        0.0,
        0.0,
        1.0,
        2.220446049250313e-16,
        0.0,
        0.0,
        0.0,
        0.0,
        1.0
      ],
      "name": "Sketchfab_model"
    },
    {
      "children": [
        2
      ],
      "matrix": [
        1.0,
        0.0,
        0.0,
        0.0,
        0.0,
        0.0,
        1.0,
        0.0,
        0.0,
        -1.0,
        0.0,
        0.0,
        0.0,
        0.0,
        0.0,
        1.0
      ],
      "name": "0a3a9af57343428da95ee7e3d443c899.fbx"
    },
    {
      "children": [
        3
      ],
      "name": "RootNode"
    },
    {
      "children": [
        4
      ],
      "matrix": [
        0.02539999969303608,
        0.0,
        0.0,
        0.0,
        0.0,
        5.639932896936113e-18,
        -0.02539999969303608,
        0.0,
        0.0,
        0.022694462910294533,
        5.039183050902126e-18,
        0.0,
        0.0,
        0.0,
        0.0,
        1.0
      ],
      "name": "ArtistPalette3"
    },
    {
      "mesh": 0,
      "name": "ArtistPalette3_ArtistPalette3_0"
    }
  ],
  "samplers": [
    {
      "magFilter": 9729,
      "minFilter": 9987,
      "wrapS": 10497,
      "wrapT": 10497
    }
  ],
  "scene": 0,
  "scenes": [
    {
      "name": "Sketchfab_Scene",
      "nodes": [
        0
      ]
    }
  ],
  "textures": [
    {
      "sampler": 0,
      "source": 0
    },
    {
      "sampler": 0,
      "source": 1
    },
    {
      "sampler": 0,
      "source": 2
    }
  ]
}
